Coordinates
version=1
nRows=14
nColumns=42
inDegrees=yes

Units are S.I. units (second, meters, Newtons, ...)
If the header above contains a line with 'inDegrees', this indicates whether rotational values are in degrees (yes) or radians (no).

endheader
time	pelvis_tilt	pelvis_list	pelvis_rotation	pelvis_tx	pelvis_ty	pelvis_tz	hip_flexion_r	hip_adduction_r	hip_rotation_r	knee_angle_r	knee_adduction_r	knee_angle_r_beta	ankle_angle_r	subtalar_angle_r	mtp_angle_r	hip_flexion_l	hip_adduction_l	hip_rotation_l	knee_angle_l	knee_adduction_l	knee_angle_l_beta	ankle_angle_l	subtalar_angle_l	mtp_angle_l	lumbar_extension	lumbar_bending	lumbar_rotation	arm_flex_r	arm_add_r	arm_rot_r	elbow_flex_r	pro_sup_r	wrist_flex_r	wrist_dev_r	arm_flex_l	arm_add_l	arm_rot_l	elbow_flex_l	pro_sup_l	wrist_flex_l	wrist_dev_l
      0.72000000	      2.62925910	     -0.61447319	     -4.39809208	     -1.92162795	      0.86491565	      0.20206395	     10.08614902	      6.78444775	    -38.97832278	     25.52958615	    -21.20812676	      0.44557534	     25.60545420	     38.03234179	     -7.61752102	     32.03096702	     -0.32025640	    -10.45455230	     60.83573005	     -8.23175009	      1.06178379	      9.02671913	    -16.31516950	     -7.61752102	    -21.45913651	     -0.96868032	      8.56671981	     17.70351256	    -19.25989779	     16.41130264	     45.43522189	     90.00000001	      0.00000000	      0.00000000	      0.69483096	    -12.86936104	     15.43077483	     30.97732992	     90.00000001	      0.00000000	      0.00000000
      0.73000000	      2.85840977	     -0.86071312	     -4.74381991	     -1.90952370	      0.86452507	      0.20377739	      8.64562167	      7.13764297	    -38.99366257	     25.08397865	    -21.13365805	      0.43779802	     26.28016816	     38.22843833	     -7.61386267	     32.38049877	     -0.56999454	    -10.94789663	     57.47280749	     -8.34605320	      1.00308972	      9.03376217	    -15.69024867	     -7.61386267	    -21.73451628	     -0.83381547	      9.06806087	     18.36216525	    -19.66031479	     16.46534475	     46.49361903	     90.00000001	      0.00000000	      0.00000000	     -0.27288372	    -12.55979370	     15.53357554	     30.64185522	     90.00000001	      0.00000000	      0.00000000
      0.74000000	      3.09479508	     -1.12725225	     -5.04282404	     -1.89744959	      0.86391323	      0.20532740	      7.24091253	      7.49244503	    -39.01041441	     24.71126505	    -21.08288634	      0.43129294	     26.87168767	     38.32755382	     -7.61034020	     32.61065733	     -0.77854600	    -11.69444923	     53.85945262	     -8.72251181	      0.94002478	      9.04410309	    -14.80485672	     -7.61034020	    -22.03531836	     -0.66580289	      9.51189800	     19.07243832	    -20.03446235	     16.55981017	     47.44904015	     90.00000001	      0.00000000	      0.00000000	     -1.23380829	    -12.25383505	     15.61343624	     30.39278039	     90.00000001	      0.00000000	      0.00000000
      0.75000000	      2.82005956	     -1.62372283	     -5.21915481	     -1.88588065	      0.86190685	      0.20686024	      6.61474996	      8.27521482	    -39.00926821	     24.55259782	    -21.30941147	      0.42852367	     27.16861922	     38.16367234	     -7.60881201	     33.53294186	     -1.31773969	    -11.97728703	     50.50265955	     -8.72726911	      0.88143769	      9.13072032	    -14.25228591	     -7.60881201	    -21.79649817	     -0.16287802	      9.92637219	     19.77002113	    -20.32698346	     16.48910761	     48.09115485	     90.00000001	      0.00000000	      0.00000000	     -2.26083745	    -11.98347142	     15.67389023	     30.24306206	     90.00000001	      0.00000000	      0.00000000
      0.76000000	      3.44549298	     -1.73155393	     -5.45697317	     -1.87312039	      0.86164213	      0.20812313	      4.71586309	      8.28959115	    -39.04485197	     24.25269564	    -21.16844664	      0.42328939	     27.96570619	     38.44448059	     -7.60141985	     32.97765826	     -1.33198824	    -14.15435271	     46.18769812	     -9.90801100	      0.80612741	      9.84449879	    -10.82257099	     -7.60141985	    -22.48010545	     -0.20194867	     10.20990275	     20.46905828	    -20.69078511	     16.87211352	     49.03164183	     90.00000001	      0.00000000	      0.00000000	     -3.18638421	    -11.71994251	     15.62175313	     30.07852511	     90.00000001	      0.00000000	      0.00000000
      0.77000000	      3.46097068	     -2.05672565	     -5.49787157	     -1.86116568	      0.85995713	      0.20918593	      3.72797564	      8.75072276	    -39.08958277	     24.13223125	    -21.29822521	      0.42118689	     28.47614145	     38.41825849	     -7.59862170	     33.22496105	     -1.48979105	    -14.68307554	     42.30844472	    -10.01147200	      0.73842166	      9.85430616	     -9.43990922	     -7.59862170	    -22.55559089	      0.11720674	     10.42197435	     21.11204729	    -20.92298922	     16.87447149	     49.78593513	     90.00000001	      0.00000000	      0.00000000	     -4.05904373	    -11.44969103	     15.63255505	     29.85949884	     90.00000001	      0.00000000	      0.00000000
      0.78000000	      3.20768869	     -2.53500779	     -5.53711070	     -1.84947076	      0.85751025	      0.21022453	      3.17969887	      9.55525297	    -39.08554345	     24.05990408	    -21.75695526	      0.41992454	     28.80972567	     38.30656678	     -7.59707148	     33.84611361	     -1.84309403	    -15.17852657	     38.72878752	    -10.08979289	      0.67594486	      9.96785277	     -8.42180937	     -7.59707148	    -22.35318127	      0.64268588	     10.70296319	     21.73109793	    -21.16991387	     16.84101579	     50.29413872	     90.00000001	      0.00000000	      0.00000000	     -4.96535315	    -11.17028640	     15.65829736	     29.79160245	     90.00000001	      0.00000000	      0.00000000
      0.79000000	      3.73198110	     -2.75903309	     -5.64089261	     -1.83642247	      0.85644649	      0.21112323	      1.50328062	      9.61867919	    -39.14766231	     24.10698550	    -21.60468076	      0.42074627	     29.46765009	     38.37361815	     -7.58982251	     33.38390579	     -2.14133372	    -18.10013867	     34.80727353	    -11.01728053	      0.60750153	     11.64520988	     -1.76749067	     -7.58982251	    -22.87667267	      0.79337520	     10.78869140	     22.41933742	    -21.32265855	     17.12213284	     50.87548754	     90.00000001	      0.00000000	      0.00000000	     -5.90795675	    -10.91742763	     15.44695143	     29.72240190	     90.00000001	      0.00000000	      0.00000000
      0.80000000	      3.37138856	     -3.34186683	     -5.55934902	     -1.82465510	      0.85357086	      0.21191232	      1.10878293	     10.47434952	    -39.13706793	     24.23516858	    -21.93223232	      0.42298349	     29.61260717	     38.19627812	     -7.58878670	     34.19739645	     -2.64633205	    -18.39423165	     31.97672063	    -10.70982189	      0.55809906	     11.61124267	     -1.13299757	     -7.58878670	    -22.55217122	      1.49224978	     10.87858949	     23.00959311	    -21.38120000	     17.02364812	     51.31664504	     90.00000001	      0.00000000	      0.00000000	     -6.77886543	    -10.63758596	     15.51695112	     29.60439503	     90.00000001	      0.00000000	      0.00000000
      0.81000000	      3.36011199	     -3.39634796	     -5.39394617	     -1.81245316	      0.85158124	      0.21214373	      0.31891456	     10.53342699	    -39.22452052	     24.46148871	    -22.15396022	      0.42693352	     29.97654805	     38.13076490	     -7.58729245	     34.11352628	     -2.28874477	    -18.65581306	     28.39315480	    -10.48356313	      0.49555404	     11.40636910	      1.93630997	     -7.58729245	    -22.54967115	      1.56134768	     10.71632052	     23.52549735	    -21.42313205	     17.03986994	     51.67752786	     90.00000001	      0.00000000	      0.00000000	     -7.42285824	    -10.47025993	     15.54197661	     29.42722257	     90.00000001	      0.00000000	      0.00000000
      0.82000000	      3.66069780	     -3.77130187	     -5.49303558	     -1.79935210	      0.84983449	      0.21291171	     -0.96817256	     10.86967822	    -39.24214722	     24.62193253	    -22.30463256	      0.42973379	     30.34452561	     38.14994847	     -7.58050638	     34.24155818	     -2.95708786	    -22.17819597	     26.17912613	    -11.17132308	      0.45691195	     13.21259122	      9.59661190	     -7.58050638	    -22.81944525	      1.90911768	     10.91217467	     24.00768475	    -21.48592970	     17.02323273	     51.95188214	     90.00000001	      0.00000000	      0.00000000	     -8.20437488	    -10.26362572	     15.57061926	     29.42868909	     90.00000001	      0.00000000	      0.00000000
      0.83000000	      3.41559402	     -4.05564855	     -5.39868120	     -1.78718234	      0.84728393	      0.21331746	     -1.38302867	     11.28099133	    -39.25477891	     24.97189364	    -22.73639212	      0.43584176	     30.40401822	     38.03839280	     -7.57957217	     34.72496751	     -2.98906500	    -22.22704177	     24.26763974	    -10.85516448	      0.42355022	     13.00363934	     10.76736632	     -7.57957217	    -22.56383548	      2.24295945	     10.88692738	     24.39407555	    -21.46259949	     16.89950671	     52.13935294	     90.00000001	      0.00000000	      0.00000000	     -8.79508600	    -10.09084615	     15.67367839	     29.32439106	     90.00000001	      0.00000000	      0.00000000
      0.84000000	      3.38346750	     -4.14421538	     -5.32581218	     -1.77449476	      0.84520643	      0.21343392	     -2.05176746	     11.22873662	    -39.28783753	     25.55459258	    -22.92567984	      0.44601178	     30.52061049	     37.91318010	     -7.57806952	     34.88460220	     -2.78475372	    -22.66577271	     22.70031932	    -10.78170617	      0.39619531	     12.86513571	     12.89369523	     -7.57806952	    -22.49035682	      2.34971794	     10.75433773	     24.71059750	    -21.31033174	     16.64599339	     52.28864830	     90.00000001	      0.00000000	      0.00000000	     -9.34350764	     -9.96156245	     15.88444376	     29.18447344	     90.00000001	      0.00000000	      0.00000000
      0.85000000	      3.40839137	     -4.26015556	     -5.34608834	     -1.76155550	      0.84324997	      0.21366571	     -2.74793493	     11.18454840	    -39.28578887	     26.21172533	    -23.20798494	      0.45748091	     30.52319274	     37.86226824	     -7.57662786	     35.07320120	     -2.69859279	    -23.25347906	     21.94863605	    -10.89504914	      0.38307597	     12.99923666	     14.72767902	     -7.57662786	    -22.46147490	      2.44364532	     10.76224276	     24.90182196	    -21.20292046	     16.29821908	     52.40041937	     90.00000001	      0.00000000	      0.00000000	     -9.80605523	     -9.84850042	     16.17972906	     29.10120919	     90.00000001	      0.00000000	      0.00000000
